<svg xmlns="http://www.w3.org/2000/svg" width="1200" height="800" viewBox="0 0 1200 800">
  <defs>
    <linearGradient id="card-gradient" x1="0%" y1="0%" x2="100%" y2="100%">
      <stop offset="0%" style="stop-color:#198754;stop-opacity:0.1"/>
      <stop offset="100%" style="stop-color:#198754;stop-opacity:0.05"/>
    </linearGradient>
  </defs>
  <rect width="100%" height="100%" fill="url(#card-gradient)"/>
  <!-- Car shape -->
  <g transform="translate(400,250)" fill="#198754">
    <path d="M400 150c0-20-15-35-35-35H235c-20 0-35 15-35 35v10H90l-30-60c-5-10-15-15-25-15H20c-10 0-20 10-20 20v140c0 10 10 20 20 20h30v30c0 20 15 35 35 35s35-15 35-35v-30h260v30c0 20 15 35 35 35s35-15 35-35v-30h30c10 0 20-10 20-20V170c0-10-10-20-20-20h-30v-10zm-300 140c-10 0-20-10-20-20s10-20 20-20 20 10 20 20-10 20-20 20zm330 0c-10 0-20-10-20-20s10-20 20-20 20 10 20 20-10 20-20 20zm40-70H130l40-80h260l40 80z"/>
  </g>
  <!-- Text -->
  <text x="50%" y="600" dominant-baseline="middle" text-anchor="middle" font-family="Segoe UI, system-ui, -apple-system" font-size="48" fill="#198754" font-weight="600">Honda Civic</text>
  <text x="50%" y="650" dominant-baseline="middle" text-anchor="middle" font-family="Segoe UI, system-ui, -apple-system" font-size="24" fill="#6c757d">Sport Sedan</text>
</svg>